<svg version="1.1" id="Layer_1" xmlns="http://www.w3.org/2000/svg" xmlns:xlink="http://www.w3.org/1999/xlink" x="0px" y="0px"
	 width="100%" viewBox="0 0 186 112" enable-background="new 0 0 186 112" xml:space="preserve">
<path fill="#00ABEE" opacity="1.000000" stroke="none" 
	d="
M71.705551,1.260005 
	C86.354225,1.000000 100.708458,1.000000 115.531342,1.000000 
	C118.276413,2.780031 119.897331,5.035450 121.022026,7.695346 
	C123.075150,12.550977 126.808502,14.663956 132.044815,14.640014 
	C138.363144,14.611122 144.683411,14.607491 151.003586,14.718339 
	C155.021103,14.788802 157.566330,16.531385 158.815430,20.363338 
	C159.690796,23.048727 160.805511,25.663719 161.656601,28.351166 
	C162.956970,32.457344 161.548706,34.331169 157.315384,34.486408 
	C155.322159,34.559502 153.324219,34.499512 151.328415,34.500572 
	C161.865219,34.680046 163.470032,31.895008 163.368927,46.450478 
	C163.296143,56.928051 163.475372,67.407509 163.294540,77.883858 
	C163.175156,84.799843 162.359863,85.490486 155.389908,85.500038 
	C153.227783,85.503006 151.065643,85.500740 148.903519,85.499542 
	C151.938217,85.506920 154.972931,85.503403 158.007629,85.506012 
	C161.293152,85.508827 162.580460,87.361397 162.076035,90.338684 
	C161.351074,94.617622 159.811935,98.677414 157.620499,102.418785 
	C156.200256,104.843483 153.620529,105.165726 151.055267,105.254631 
	C144.903137,105.467834 138.748566,105.350418 132.595520,105.361427 
	C129.348785,105.367241 126.338905,105.953468 123.610130,107.812172 
	C119.693527,110.479965 115.143867,111.446770 110.316658,112.749016 
	C99.312439,113.000000 88.624878,113.000000 77.468658,113.000000 
	C66.163597,109.353195 55.954147,103.144150 43.719547,105.289444 
	C40.978989,105.769997 38.074539,105.402039 35.248985,105.203873 
	C33.562351,105.085579 31.686274,104.991051 30.699993,103.542564 
	C27.772266,99.242805 25.965387,94.406784 25.473621,89.250664 
	C25.266283,87.076744 26.898382,85.596191 29.308445,85.528793 
	C31.925207,85.455612 34.543259,85.516037 37.160686,85.498871 
	C35.330177,85.499573 33.499660,85.501350 31.669147,85.499611 
	C24.558229,85.492828 23.799314,84.888245 23.705246,77.970886 
	C23.542326,65.990791 23.539789,54.007576 23.706429,42.027546 
	C23.801817,35.169849 24.623735,34.512856 31.680656,34.502121 
	C34.157787,34.498352 36.634918,34.504929 39.112041,34.498680 
	C36.283306,34.502148 33.452923,34.560307 30.626217,34.485413 
	C26.406834,34.373627 24.681337,32.856403 25.846794,29.023928 
	C27.587120,23.301050 27.257133,15.944813 35.386116,14.151369 
	C36.526222,13.899836 37.284130,12.757685 37.584206,11.588037 
	C38.620560,7.548557 41.617279,6.555568 45.229065,6.726682 
	C51.638363,7.030332 58.210800,5.391758 64.411720,8.338031 
	C65.910698,9.050245 66.525162,7.821456 66.995155,6.759229 
	C67.963882,4.569857 69.277184,2.709226 71.705551,1.260005 
z"/>
<path fill="#000000" opacity="1.000000" stroke="none" 
	d="
M110.468658,113.000000 
	C108.865883,110.590164 111.392784,110.756004 112.193115,110.512886 
	C116.600136,109.174156 120.451759,106.897141 124.226120,104.357140 
	C125.863167,103.255455 127.795143,102.925201 129.862686,102.956581 
	C137.193634,103.067863 144.530533,102.875237 151.858231,103.065552 
	C154.503082,103.134247 156.042480,102.123871 156.590179,99.777802 
	C157.589905,95.495338 160.375580,91.779953 160.333420,86.856949 
	C154.074203,86.856949 147.652405,86.856949 141.160782,86.856949 
	C141.318771,83.748421 143.319092,84.010712 145.120590,84.005051 
	C149.286819,83.991959 153.458740,83.869064 157.617294,84.048096 
	C160.150192,84.157135 161.086151,83.483795 161.059982,80.755684 
	C160.927277,66.924942 160.928513,53.091568 161.059280,39.260784 
	C161.084854,36.553974 160.190750,35.837315 157.633392,35.950798 
	C153.475327,36.135307 149.303040,36.008945 145.136810,35.994690 
	C143.339828,35.988544 141.334763,36.264481 141.159012,33.221291 
	C147.496338,33.221291 153.763184,33.221291 160.697952,33.221291 
	C158.951263,27.969208 157.451523,23.155382 155.723526,18.424944 
	C155.099686,16.717207 153.302444,16.995041 151.804214,16.996691 
	C144.638229,17.004580 137.472198,17.013191 130.306259,16.995472 
	C124.602814,16.981369 121.165977,14.467973 118.916023,8.994100 
	C117.860771,6.426780 116.503899,3.983437 115.641861,1.241956 
	C138.295700,1.000000 160.591873,1.071936 182.886520,0.918635 
	C186.051926,0.896869 187.133301,1.207800 187.113251,4.874229 
	C186.923218,39.647823 186.961060,74.422997 187.069427,109.197296 
	C187.078705,112.173782 186.582977,113.117317 183.314468,113.093819 
	C159.189774,112.920387 135.063263,113.000000 110.468658,113.000000 
z"/>
<path fill="#000000" opacity="1.000000" stroke="none" 
	d="
M71.531342,1.000000 
	C69.547714,6.023949 69.255913,12.324317 62.906509,16.032898 
	C64.646912,8.673336 60.599216,8.452962 55.676968,8.948746 
	C52.876682,9.230801 50.021183,9.089570 47.196846,8.978629 
	C42.981075,8.813031 38.704823,8.241671 39.928127,14.908213 
	C40.436398,17.678089 37.961929,17.058062 36.513458,16.950174 
	C33.089226,16.695127 31.148167,17.326864 30.593937,21.481466 
	C30.097754,25.200945 27.707300,28.611923 27.171124,32.884266 
	C33.679863,32.884266 40.106060,32.884266 46.491207,32.884266 
	C46.378372,35.619381 45.006355,36.112610 42.840126,36.044384 
	C38.185745,35.897789 33.521461,36.081970 28.865395,35.965092 
	C26.765903,35.912392 25.945646,36.507561 25.959135,38.752888 
	C26.044086,52.895851 26.039389,67.039787 25.962420,81.182838 
	C25.950659,83.343384 26.610123,84.109360 28.801098,84.039230 
	C33.122879,83.900894 37.453316,84.056694 41.778053,83.976562 
	C43.913902,83.936981 45.733250,84.193237 46.554699,87.000130 
	C41.316032,87.000130 36.209816,87.298340 31.156153,86.910957 
	C26.668262,86.566940 26.531258,88.246399 27.980249,91.640846 
	C29.246897,94.608147 30.743568,97.489227 31.101503,100.823372 
	C31.373514,103.357117 33.592819,102.994385 35.391384,102.996361 
	C42.546310,103.004234 49.706509,103.159340 56.853661,102.923584 
	C59.825333,102.825569 62.473705,103.382309 64.543777,105.292557 
	C68.357010,108.811386 73.916359,108.975510 77.339348,112.737000 
	C52.874214,113.000000 28.748293,112.963364 4.622838,113.052567 
	C2.000613,113.062256 0.870932,112.980202 0.888185,109.633904 
	C1.069194,74.527664 1.078478,39.419685 0.878243,4.313648 
	C0.858285,0.814472 2.195251,0.954894 4.675316,0.962172 
	C26.804285,1.027109 48.933525,1.000000 71.531342,1.000000 
z"/>
<path fill="#000000" opacity="1.000000" stroke="none" 
	d="
M95.688675,104.676056 
	C82.715904,104.327538 71.031609,100.798615 62.260445,91.496346 
	C51.533836,80.120247 46.225063,66.535782 50.049133,50.655785 
	C54.624317,31.656664 69.742409,18.098577 88.776512,16.003948 
	C112.584877,13.383928 132.704453,28.816645 138.090897,52.763718 
	C141.664780,68.652412 131.550781,88.905785 118.319366,97.047737 
	C111.363327,101.328133 104.100418,103.838837 95.688675,104.676056 
z"/>
<path fill="#177DC5" opacity="1.000000" stroke="none" 
	d="
M104.216446,25.638426 
	C121.472893,30.593781 132.489731,48.026966 129.327042,65.764961 
	C126.757347,80.177094 118.903526,89.243172 105.756981,93.981377 
	C83.596397,101.968376 58.732220,86.862625 57.895836,62.500038 
	C57.371372,47.223164 63.111839,35.627125 76.349846,28.322563 
	C84.879425,23.616051 94.293274,22.529074 104.216446,25.638426 
z"/>
<path fill="#000000" opacity="1.000000" stroke="none" 
	d="
M79.725693,35.585228 
	C97.456360,26.153996 116.474815,35.082104 121.595657,52.881077 
	C125.956383,68.038017 116.435242,83.967384 99.046417,88.082817 
	C86.395828,91.076851 72.361847,82.000725 68.149231,73.100815 
	C61.713013,59.503155 65.439987,45.384785 76.988640,37.473629 
	C77.798317,36.918976 78.605980,36.361370 79.725693,35.585228 
z"/>
<path fill="#177DC5" opacity="1.000000" stroke="none" 
	d="
M108.000099,60.998508 
	C107.999512,65.493378 107.989601,69.489487 108.002441,73.485527 
	C108.008438,75.349190 108.276581,77.145409 105.334518,77.048119 
	C102.663872,76.959801 103.013138,75.285904 103.007614,73.658524 
	C102.992386,69.166954 103.002350,64.675308 102.458794,60.032806 
	C100.777252,64.732086 99.076096,69.424500 97.425461,74.134613 
	C96.891808,75.657410 96.765869,77.193130 94.354530,77.074577 
	C91.812057,76.949585 91.565536,75.221756 91.033142,73.542999 
	C89.688164,69.301872 88.380203,65.049004 85.997017,61.043301 
	C85.997017,65.300018 85.978363,69.556854 86.005981,73.813385 
	C86.017395,75.573174 86.057228,77.047218 83.508598,77.049934 
	C80.973137,77.052643 80.988350,75.605164 80.992821,73.830261 
	C81.015060,65.005630 80.976173,56.180748 81.031075,47.356407 
	C81.039284,46.036175 80.356552,44.119518 82.811630,44.039825 
	C84.756653,43.976692 86.571388,43.687969 87.688881,46.168869 
	C89.578262,50.363419 90.040192,54.951069 91.744537,59.223042 
	C92.675629,61.556831 93.881989,63.866119 94.611031,67.296898 
	C96.924179,60.121552 99.102348,53.833473 100.939262,47.447231 
	C101.726929,44.708794 103.063484,43.726490 105.844414,43.980484 
	C109.359360,44.301517 107.834938,46.907383 107.925850,48.515598 
	C108.151031,52.498978 107.999985,56.503624 108.000099,60.998508 
z"/>
</svg>